<svg xmlns="http://www.w3.org/2000/svg" xml:space="preserve" style="fill-rule:evenodd;clip-rule:evenodd;stroke-linejoin:round;stroke-miterlimit:2" viewBox="0 0 1372 1911"><path d="M1198 569a2929 2929 0 0 0 22 134l7 36a1197 1197 0 0 1 39 262 179 179 0 0 1 18 262c1 102-16 244-99 370l-13 18c13 59 8 109-12 148-18 34-51 63-95 83-40 17-88 27-139 29h-11c-63 0-126-14-182-39a336 336 0 0 1-202-292l-2-2-52-84c-15-29-25-57-33-81-64 14-132-13-166-70-38-63-27-144 28-194l5-5-40-241-1 1-11-57-24-134A272 272 0 0 1 14 545c-40-108 16-208 42-246 66-95 185-146 315-136C405 119 492 25 636 4c169-25 292 67 334 104 77-18 153-18 220 0 71 20 126 60 156 113 35 64 25 134 21 153-16 86-80 158-169 195" style="fill:#f7b895;fill-rule:nonzero"/><path d="m1105 1438-50 7c1 10 3 20 7 30-32 18-88 42-159 33-61-8-106-37-132-60 11-21 14-42 15-56l-50-4a110 110 0 0 1-57 88l24 44c15-8 28-18 39-30a298 298 0 0 0 343 30c5 7 11 13 18 19l35-36a108 108 0 0 1-33-65M742 1151c27-6 49 4 57 9l26-43c-13-8-49-26-94-16-45 9-70 39-79 52l41 29c6-7 21-26 49-31M1126 1098c-37 6-62 25-74 36l36 37a81 81 0 0 1 91-15l23-46c-14-6-42-17-76-12" style="fill:#3e1911;fill-rule:nonzero"/><path d="m1185 514-1-1a523 523 0 0 0-167-93c36-17 65-46 77-83-35 18-71 38-108 51h-1c-23 8-48 10-73 6-47-7-96-9-147-7 24-29 40-64 43-101-40 55-88 96-151 115l-36 8h-4c-70 9-136-4-198-37l-28-15c10 20 24 37 41 52 20 17 42 31 67 41l-18 8c-25 11-48 23-69 37-28 16-58 26-90 29h-48c-22-1-44-4-66-7 28 31 69 46 111 46a503 503 0 0 0-78 85l-5 7c-80-10-145-60-170-129-34-93 23-176 36-195 56-82 163-125 278-111l17 2 9-14c21-29 99-128 238-149 70-10 140 2 207 36 51 25 83 55 92 64l11 11 15-4c143-39 281-4 328 82 26 48 19 100 16 115-13 65-60 120-128 151m16 344c6 38 10 75 13 113a179 179 0 0 0-219 85 99 99 0 0 0-82 1 180 180 0 0 0-333 39l-146-6c1-13 3-25 8-36 6-15 14-23 24-33l13-15c39-49 41-127 5-237l27-12c19 30 55 45 87 33 17-6 29-19 37-34 19 13 43 18 65 9 15-5 27-16 35-30 20 19 48 26 73 17 15-5 26-15 34-27 19 16 46 22 70 13 10-3 18-9 25-17a72 72 0 0 0 88 20c20 20 49 28 75 18 16-6 29-17 37-31l38 12c10 39 19 79 26 118m81 282a129 129 0 1 1-258 0 129 129 0 0 1 258 0m-657 0a129 129 0 1 1 258 1 129 129 0 0 1-258-1m507 481c-22 30-42 59-80 82-37 22-78 30-119 30-126 0-250-79-252-80a440 440 0 0 1-149-164c-24-44-39-85-47-115l-8-27-26 11c-48 20-104 2-130-41-21-36-19-80 4-113a102 102 0 0 0 119 1l17-12-8-19-13-33 134 5a180 180 0 1 0 356-40 49 49 0 0 1 47-2 178 178 0 0 0 83 190c-1 13-4 29-14 41-23 26-81 29-131-9l-31 41c34 26 74 39 110 39 35 0 68-13 90-38 15-16 22-36 24-54a179 179 0 0 0 125-13c-3 95-26 215-101 320m-9 135c-33 90-159 97-198 99-27 1-213 9-305-150-10-18-18-36-24-54a579 579 0 0 0 336 133c50 0 100-10 146-38 22-13 39-27 53-42 1 17-1 34-8 52M307 812l-12-65-11-64c21-28 41-49 55-63 20-19 118-124 295-157l21-5a599 599 0 0 1 491 95l23 132-24-8-4-15c-15-40-57-62-94-48l-9 4a73 73 0 0 0-61-22 73 73 0 0 0-87-34c-8 3-15 8-22 13a70 70 0 0 0-69-13c-7 3-14 7-20 13a72 72 0 0 0-78-22c-12 5-21 12-29 21-16-7-33-8-50-2a72 72 0 0 0-45 69c-11-2-22-1-33 3a71 71 0 0 0-45 63c-77 32-142 70-192 105m1060-438c4-19 14-89-21-153-30-53-85-93-156-113-67-18-143-18-220 0A419 419 0 0 0 636 4a417 417 0 0 0-265 159A342 342 0 0 0 56 299c-26 38-82 138-42 246 32 90 118 154 221 168l24 134 11 57 1-1 40 241-5 5c-55 50-66 131-28 194 34 57 102 84 166 70 8 24 18 52 33 81l52 84 2 2a336 336 0 0 0 202 292c56 25 119 39 182 39h11c51-2 99-12 139-29 44-20 77-49 95-83 20-39 25-89 12-148l13-18a655 655 0 0 0 99-370 179 179 0 0 0-18-262 1200 1200 0 0 0-39-262l-7-36a1899 1899 0 0 1-22-134c89-37 153-109 169-195" style="fill:#3e1911;fill-rule:nonzero"/><path d="M1089 514a599 599 0 0 0-455-51c-177 33-275 138-295 157-14 14-34 35-56 63a12576 12576 0 0 1 24 129c50-35 115-73 192-105 2-28 18-53 45-63 11-4 22-5 32-3 1-31 18-58 46-69 17-6 34-5 50 2 8-9 17-16 29-21 27-10 58-1 78 22 6-6 13-10 20-13 24-9 50-3 69 13 7-5 14-10 22-13 32-12 68 3 87 34 22-3 45 5 61 22l9-4c37-14 79 8 94 48l4 15 24 8-23-132c-24-19-45-32-57-39" style="fill:#f1f1f3;fill-rule:nonzero"/><path d="M1297 248c-47-86-185-121-328-82l-15 4-11-11c-9-9-41-39-92-64a342 342 0 0 0-445 113l-9 14-17-2a290 290 0 0 0-278 111c-13 19-70 102-36 195 25 69 90 119 170 129l5-7a555 555 0 0 1 78-85c-42 0-83-15-111-46 22 3 44 6 66 7h48c32-3 62-13 90-29 21-14 44-26 69-37l18-8a220 220 0 0 1-108-93c9 5 18 11 28 15 62 33 128 46 198 37h4l36-8c63-19 111-60 151-115-3 37-19 72-43 101 51-2 100 0 147 7 25 4 50 2 73-6h1c37-13 73-33 108-51-12 37-41 66-77 83a548 548 0 0 1 167 93l1 1c68-31 115-86 128-151 3-15 10-67-16-115" style="fill:#f1f1f3;fill-rule:nonzero"/></svg>