<svg xmlns="http://www.w3.org/2000/svg" xml:space="preserve" style="fill-rule:evenodd;clip-rule:evenodd;stroke-linejoin:round;stroke-miterlimit:2" viewBox="0 0 1372 1372"><path d="m1053 408 16 97 5 25c16 62 26 125 28 188a129 129 0 0 1 13 188c1 74-11 176-71 266l-9 13c9 42 5 78-9 106-13 24-37 45-68 60-29 12-63 19-100 20h-8c-45 0-90-10-130-28a241 241 0 0 1-145-209l-2-2-37-60c-11-21-18-41-24-58a110 110 0 0 1-99-189l4-4-29-173-1 1-7-41-18-96c-71-8-131-55-158-121-29-77 11-149 30-176 47-68 133-105 226-98 24-31 87-99 190-114 121-18 210 48 240 75 55-13 109-13 158 0 51 14 90 43 112 81 25 46 17 96 15 110-12 61-58 113-122 139" style="fill:#f7b895;fill-rule:nonzero"/><path d="m987 1032-36 5c0 7 2 14 5 22a179 179 0 0 1-209-19c8-16 10-31 11-41l-36-3c-2 27-18 51-41 63l17 32c11-6 20-13 28-22 69 59 168 67 246 22l13 13 25-25a78 78 0 0 1-23-47M726 826c19-4 35 3 41 7l19-31a93 93 0 0 0-124 26l29 20c4-5 15-18 35-22m276-38c-27 4-45 18-53 26l25 26c18-16 44-21 66-10l16-33c-10-5-30-13-54-9" style="fill:#3e1911;fill-rule:nonzero"/><path d="m1044 369-1-1c-35-29-76-52-120-66 26-13 47-33 56-60-25 13-51 27-78 37h-1c-16 5-34 7-52 4-34-5-69-7-105-5 17-21 28-46 30-73-28 40-63 69-108 83l-26 6h-3c-50 6-97-3-142-27l-20-11c7 15 17 27 30 38 14 12 30 22 48 29l-13 6c-18 8-35 16-50 26-20 12-41 19-64 21h-35l-47-5c20 22 49 33 80 33-21 18-40 39-56 61l-4 5c-57-7-104-43-122-92-24-67 17-127 26-140 40-59 117-90 199-80l13 1 6-10a247 247 0 0 1 319-81c37 18 60 40 66 46l8 8 11-3c103-28 202-3 235 59 19 35 14 72 12 83-10 46-43 86-92 108m11 247c5 27 8 54 10 81-60-22-128 4-157 61-19-8-41-8-59 1a129 129 0 0 0-239 28l-105-5c1-9 2-18 6-26 4-10 10-16 17-23l9-11c28-35 30-91 4-170l19-9c14 22 40 33 63 24 12-4 21-14 26-24a49 49 0 0 0 72-15c14 13 35 18 52 12 11-4 19-11 25-20 13 12 33 16 50 10 7-2 13-7 18-12 15 18 41 24 63 14a51 51 0 0 0 81-9l27 8c7 28 13 57 18 85m59 202c0 51-42 93-93 93s-93-42-93-93 42-92 93-92 93 41 93 92m-472 0a93 93 0 0 1 185 0v1c0 51-42 92-92 92-51 0-93-42-93-92v-1m364 345c-16 22-30 43-57 59s-56 22-86 22c-90 0-179-57-181-58-45-29-82-70-107-117-17-32-28-61-33-83l-6-19-19 8c-34 14-74 1-93-30a75 75 0 0 1 3-81c25 19 60 19 85 1l12-9-5-13-10-24 97 3c0 71 58 128 129 128a130 130 0 0 0 126-156c10-6 23-7 34-2-12 54 12 109 59 137 0 9-3 20-10 29-16 19-58 21-94-6l-22 29c24 19 53 28 79 28 25 0 49-9 65-27 10-12 15-26 17-39 30 8 62 5 89-9-2 68-18 154-72 229m-7 97c-23 65-114 70-142 71-19 1-152 7-218-107-8-13-13-26-18-39 68 57 153 90 241 95a197 197 0 0 0 143-57c1 12 0 24-6 37M414 583l-9-47-8-46c16-20 30-35 40-45 14-14 85-89 212-113l15-3c121-30 250-5 352 68l16 95-17-6-3-11c-10-29-40-44-67-34l-6 3a52 52 0 0 0-44-16 53 53 0 0 0-63-25l-15 10a50 50 0 0 0-50-10c-5 3-10 5-14 10a52 52 0 0 0-56-16c-9 4-15 9-21 15-12-5-24-6-36-1-20 8-33 28-32 49-8-1-16-1-24 2-19 8-31 25-32 45-56 23-102 51-138 76m761-314c2-14 10-64-15-110-22-38-61-67-112-81-49-13-103-13-158 0C825 19 737-8 650 3c-76 12-144 53-190 114-87-10-174 27-226 98-19 27-59 99-30 176 23 65 84 111 158 121l18 96 7 41 1-1 29 173-4 4a110 110 0 0 0 99 189c6 17 13 37 24 58l37 60 2 2c4 91 61 173 145 209 40 18 85 28 130 28h8c37-1 71-8 100-20 31-15 55-36 68-60 14-28 18-64 9-106l9-13c50-80 74-172 71-266a128 128 0 0 0-13-188c-2-63-12-126-28-188l-5-25c-6-32-12-64-16-97 64-26 110-78 122-139" style="fill:#3e1911;fill-rule:nonzero"/><path d="M975 369a430 430 0 0 0-326-37c-127 24-198 99-212 113-10 10-24 25-40 45l17 93c36-25 82-53 138-76 1-20 13-38 32-45 8-3 16-3 23-2 1-22 13-41 33-49 12-5 24-4 36 1 6-6 12-11 21-15 19-7 41-1 56 16 4-5 9-7 14-10 17-6 36-2 50 10l15-10c23-8 49 3 63 25 16-2 32 3 43 16l7-3c27-10 57 5 67 34l3 11 17 6-16-95c-17-14-32-23-41-28" style="fill:#f1f1f3;fill-rule:nonzero"/><path d="M1124 178c-33-62-132-87-235-59l-11 3-8-8c-6-6-29-28-66-46a246 246 0 0 0-319 81l-6 10-13-1c-76-12-153 18-199 80-9 13-50 73-26 140 18 49 65 85 122 92l4-5c16-22 35-43 56-61-31 0-60-11-80-33l47 5h35c23-2 44-9 64-21 15-10 32-18 50-26l13-6c-33-13-60-36-78-67l20 11c45 24 92 33 142 27h3l26-6c45-14 80-43 108-83-2 27-13 52-30 73 36-2 71 0 105 5 18 3 36 1 52-4h1c27-10 53-24 78-37-9 27-30 47-56 60 44 15 85 37 120 66l1 1c49-22 82-62 92-108 2-11 7-48-12-83" style="fill:#f1f1f3;fill-rule:nonzero"/></svg>